# xmcd CD database file
#
# Track frame offsets:
#	150
#	19150
#	37382
#	57727
#	69937
#	87477
#	105485
#	129637
#	154977
#	168050
#	187430
#	211600
#	231527
#	248137
#	261990
#	282397
#	295242
#	306657
#
# Disc length: 4397 seconds
#
# Revision: 0
# Processed by: cddbd v1.4PL0 Copyright (c) Steve Scherf et al.
# Submitted via: CDex 1.40Beta9
#
DISCID=1f112b12
DTITLE=EMI - Best Sampler
DYEAR=1900
DGENRE=Native American
TTITLE0=The Last Words Said-Richard Max
TTITLE1=Eden
TTITLE2=Il Mio Cuore Va
TTITLE3=The Return Overture
TTITLE4=Still Waters Run Deep-Justin Hayward
TTITLE5=Is Anybody There-Bonnie Tylor
TTITLE6=Picture Within-Jon Lord
TTITLE7=Wait A While-Jon Lord
TTITLE8=Djangos Hope-Jim Wilson
TTITLE9=Vincenzo La Scola-Vita Mia
TTITLE10=Con Te Partiro-john Bayless
TTITLE11=Reflection-바네사 메이
TTITLE12=타르티니-바네사 메이-악마의트릴
TTITLE13=Chart Success-Tiger in night
TTITLE14=Carmine Meo-Emma Shapplin
TTITLE15=Antz O.M.P.S-I Can See Crealy Now
TTITLE16=Jean De Florette Theme
TTITLE17=Vives-연인들의 합창-Do a Francisquita
EXTD=ID3G: 64
EXTT0=
EXTT1=
EXTT2=
EXTT3=
EXTT4=
EXTT5=
EXTT6=
EXTT7=
EXTT8=
EXTT9=
EXTT10=
EXTT11=
EXTT12=
EXTT13=
EXTT14=
EXTT15=
EXTT16=
EXTT17=
PLAYORDER=
